<svg width="50" height="50" viewBox="0 0 50 50" fill="none" xmlns="http://www.w3.org/2000/svg">
<path d="M11.7188 7.8125C10.685 7.81986 9.69573 8.23378 8.96475 8.96475C8.23378 9.69573 7.81986 10.685 7.8125 11.7188V38.2812C7.8125 40.4172 9.58281 42.1875 11.7188 42.1875H38.2812C40.4172 42.1875 42.1875 40.4172 42.1875 38.2812V11.7188C42.1875 9.58281 40.4172 7.8125 38.2812 7.8125H11.7188ZM11.7188 10.9375H38.2812C38.7266 10.9375 39.0625 11.2734 39.0625 11.7188V38.2812C39.0646 38.3844 39.0459 38.487 39.0074 38.5827C38.9689 38.6785 38.9114 38.7654 38.8384 38.8384C38.7654 38.9114 38.6785 38.9689 38.5827 39.0074C38.487 39.0459 38.3844 39.0646 38.2812 39.0625H11.7188C11.6155 39.0648 11.5129 39.0462 11.417 39.0078C11.3212 38.9694 11.2341 38.9119 11.1611 38.8389C11.0881 38.7659 11.0306 38.6788 10.9922 38.583C10.9538 38.4871 10.9352 38.3845 10.9375 38.2812V11.7188C10.9375 11.2734 11.2734 10.9375 11.7188 10.9375ZM16.3094 13.6234C15.9513 13.6148 15.5951 13.6779 15.2618 13.8089C14.9285 13.94 14.6247 14.1364 14.3684 14.3866C14.1121 14.6368 13.9084 14.9357 13.7694 15.2658C13.6303 15.5959 13.5587 15.9504 13.5587 16.3086C13.5587 16.6668 13.6303 17.0213 13.7694 17.3514C13.9084 17.6815 14.1121 17.9804 14.3684 18.2306C14.6247 18.4808 14.9285 18.6772 15.2618 18.8083C15.5951 18.9393 15.9513 19.0024 16.3094 18.9938C17.0103 18.9768 17.6768 18.6865 18.1666 18.1848C18.6564 17.6831 18.9305 17.0097 18.9305 16.3086C18.9305 15.6075 18.6564 14.9341 18.1666 14.4324C17.6768 13.9307 17.0103 13.6403 16.3094 13.6234ZM30.4188 20.7516C28.1797 20.7516 26.6906 21.9781 26.075 23.1438H25.9766V21.0938H21.5813V35.9375H26.1719V28.6125C26.1719 26.6781 26.5562 24.8047 28.9547 24.8047C31.3172 24.8047 31.3484 26.9891 31.3484 28.7109V35.9375H35.9375V27.7828C35.9375 23.7922 35.0875 20.7516 30.4188 20.7516ZM14.0625 21.0938V35.9375H18.7016V21.0938H14.0625Z" fill="#D9D9D9"/>
</svg>
