<svg width="50" height="50" viewBox="0 0 50 50" fill="none" xmlns="http://www.w3.org/2000/svg">
<path d="M43.5001 6.45621C41.973 4.92913 40.1355 4.16663 37.9855 4.16663H11.9709C9.82091 4.16663 7.98341 4.92913 6.45633 6.45621C4.92925 7.98329 4.16675 9.82079 4.16675 11.9708V37.9854C4.16675 40.1354 4.92925 41.9729 6.45633 43.5C7.98341 45.027 9.82091 45.7895 11.9709 45.7895H18.0417C18.4376 45.7895 18.7355 45.775 18.9355 45.7479C19.1682 45.7012 19.3782 45.5771 19.5313 45.3958C19.7292 45.1875 19.8292 44.8854 19.8292 44.4895L19.8147 42.6458C19.8063 41.4708 19.8022 40.5416 19.8022 39.8541L19.1772 39.9625C18.7813 40.0354 18.2813 40.0666 17.6751 40.0583C17.0432 40.0466 16.4133 39.9832 15.7917 39.8687C15.1301 39.7465 14.5072 39.468 13.9751 39.0562C13.4178 38.6346 13.0021 38.0532 12.7834 37.3895L12.5126 36.7645C12.2843 36.2715 11.9975 35.8078 11.6584 35.3833C11.2709 34.877 10.8772 34.5354 10.4792 34.3541L10.2917 34.2187C10.161 34.1251 10.0421 34.0159 9.93758 33.8937C9.83777 33.7803 9.7556 33.6524 9.69383 33.5145C9.63966 33.3875 9.6855 33.2833 9.82925 33.202C9.97508 33.1187 10.2355 33.0791 10.6167 33.0791L11.1584 33.1625C11.5188 33.2333 11.9667 33.45 12.498 33.8104C13.0356 34.1769 13.4847 34.6587 13.8126 35.2208C14.2292 35.9604 14.7292 36.525 15.3167 36.9145C15.9042 37.302 16.4959 37.4979 17.0917 37.4979C17.6876 37.4979 18.2022 37.452 18.6376 37.3625C19.0586 37.2754 19.4678 37.1383 19.8563 36.9541C20.0188 35.7458 20.4605 34.8125 21.1834 34.1625C20.2467 34.0706 19.3183 33.9077 18.4063 33.675C17.5163 33.4305 16.6604 33.0756 15.8584 32.6187C15.0193 32.1619 14.2782 31.5446 13.6772 30.802C13.1001 30.0791 12.6251 29.1312 12.2542 27.9583C11.8855 26.7833 11.7001 25.427 11.7001 23.8916C11.7001 21.7062 12.4126 19.8458 13.8397 18.3083C13.173 16.6666 13.2355 14.8229 14.0292 12.7833C14.5542 12.6187 15.3313 12.7416 16.3605 13.1479C17.3897 13.5541 18.1438 13.902 18.623 14.1895C19.1022 14.4812 19.4855 14.725 19.7751 14.9229C21.4688 14.4515 23.2191 14.2146 24.9772 14.2187C26.7667 14.2187 28.5001 14.4541 30.1813 14.9229L31.2105 14.2729C32.0021 13.7976 32.8371 13.3986 33.7042 13.0812C34.6626 12.7187 35.3917 12.6208 35.9001 12.7833C36.7126 14.825 36.7834 16.6666 36.1147 18.3104C37.5417 19.8458 38.2563 21.7062 38.2563 23.8937C38.2563 25.4291 38.0709 26.7895 37.7001 27.9708C37.3313 29.1541 36.8522 30.102 36.2647 30.8166C35.653 31.5497 34.9088 32.1611 34.0709 32.6187C33.1959 33.1062 32.3459 33.4583 31.523 33.675C30.6111 33.9084 29.6827 34.0721 28.7459 34.1645C29.6834 34.977 30.1542 36.2583 30.1542 38.0104V44.4895C30.1542 44.7958 30.198 45.0437 30.2897 45.2333C30.3318 45.3246 30.3919 45.4066 30.4663 45.4742C30.5408 45.5418 30.6281 45.5938 30.723 45.627C30.923 45.6979 31.098 45.7437 31.2522 45.7604C31.4063 45.7812 31.6272 45.7875 31.9147 45.7875H37.9855C40.1355 45.7875 41.973 45.025 43.5001 43.4979C45.0251 41.9729 45.7897 40.1333 45.7897 37.9833V11.9708C45.7897 9.82079 45.0272 7.98329 43.5001 6.45621Z" fill="#D9D9D9"/>
</svg>
